<svg xmlns="http://www.w3.org/2000/svg" width="415" height="242" viewBox="0 0 415 242">
    <g fill="none" fill-rule="evenodd">
        <path fill="#D6D6E3" d="M114 125h9v102h-9z"/>
        <path fill="#AEBEE1" d="M390.247 134.249V39.912c.002-5.475 4.428-9.912 9.886-9.912 5.45.01 9.864 4.444 9.867 9.912v114.17c0 5.478-4.426 9.918-9.886 9.918h-61.228c-5.46 0-9.886-4.44-9.886-9.917 0-5.477 4.426-9.917 9.886-9.917h41.475c5.46 0 9.886-4.44 9.886-9.917z"/>
        <path fill="#1D3E7E" d="M390.247 134.249V39.912c.002-5.475 4.428-9.912 9.886-9.912 5.45.01 9.864 4.444 9.867 9.912v114.17c0 5.478-4.426 9.918-9.886 9.918h-61.228c-5.46 0-9.886-4.44-9.886-9.917 0-5.477 4.426-9.917 9.886-9.917h41.475c5.46 0 9.886-4.44 9.886-9.917z"/>
        <path fill="#D6D6E3" d="M330 154c.28-5.282 4.576-9.42 9.782-9.42h41.096c5.41 0 9.796-4.455 9.796-9.952v-94.68c-.003-5.313 4.102-9.693 9.326-9.948v124h-70z"/>
        <path fill="#AEBEE1" d="M21.75 137.232V42.915c0-5.467-4.412-9.902-9.863-9.915C6.427 33 2 37.44 2 42.915v114.147a9.93 9.93 0 0 0 2.887 7.026 9.872 9.872 0 0 0 7 2.912h61.226c5.46 0 9.887-4.44 9.887-9.915 0-5.476-4.426-9.915-9.887-9.915H31.641a9.872 9.872 0 0 1-7.002-2.91 9.93 9.93 0 0 1-2.89-7.028z"/>
        <path fill="#1D3E7E" d="M21.75 137.232V42.915c0-5.467-4.412-9.902-9.863-9.915C6.427 33 2 37.44 2 42.915v114.147a9.93 9.93 0 0 0 2.887 7.026 9.872 9.872 0 0 0 7 2.912h61.226c5.46 0 9.887-4.44 9.887-9.915 0-5.476-4.426-9.915-9.887-9.915H31.641a9.872 9.872 0 0 1-7.002-2.91 9.93 9.93 0 0 1-2.89-7.028z"/>
        <path fill="#D6D6E3" d="M83 158c-.28-5.24-4.577-9.344-9.784-9.344h-41.1a9.76 9.76 0 0 1-6.931-2.89 9.913 9.913 0 0 1-2.871-6.984V44.86c-.001-5.263-4.098-9.6-9.314-9.86v123h70zM296 125h9v104h-9z"/>
        <path fill="#000" d="M114 125h9v8h-9zM296 125h9v8h-9zM147 63a108.016 108.016 0 0 1-.601 5H145v-5h2z" opacity=".1"/>
        <path fill="#1D3E7E" d="M184 112.98c.027 1.66-1.157 3.02-2.623 3.02h-27.685v-2.917h23.036c.994 0 1.614-1.215 1.115-2.187l-20.89-42.932a1.85 1.85 0 0 0-1.62-1.056H145V62h13.05c.484.012.921.297 1.132.739l23.948 46.74a8.012 8.012 0 0 1 .87 3.502z"/>
        <path fill="#1D3E7E" d="M133.984 105.353l-.385.647-3.599-2.402L141.136 18h2.867s.118.394.31 1.145c1.92 7.397 11.347 49.294-10.329 86.208z"/>
        <path fill="#000" d="M144 19.145l-10.823 86.208-.404.647-3.773-2.402L140.674 18h3.006s.118.408.32 1.145z" opacity=".1"/>
        <path fill="#D6D6E3" d="M125.81 105.18l10.508-87.525 6.72.803-10.507 87.525z"/>
        <path fill="#E3EDF9" d="M103 112.997c-.003.553-.385 1-.857 1.003h-1.283c-.473 0-.857-.449-.857-1.003a.57.57 0 0 1 0-.117c.053-.501.416-.878.847-.88h1.283c.392.005.731.318.827.762.022.076.035.155.04.235zM107 112.997c-.003.553-.385 1-.858 1.003h-1.284c-.474 0-.858-.449-.858-1.003 0-.093.012-.186.035-.276a.988.988 0 0 1 .216-.428.782.782 0 0 1 .602-.293h1.284c.338-.002.646.227.788.587.049.129.074.269.075.41z"/>
        <path fill="#E3EDF9" d="M109 113c-.003.551-.385.997-.858 1h-1.284c-.474 0-.858-.448-.858-1a1.082 1.082 0 0 1 .075-.415c.142-.352.444-.58.778-.585h1.284a.796.796 0 0 1 .608.291c.161.188.251.443.25.709H109zM113 112.997c-.003.553-.385 1-.858 1.003h-1.285c-.32 0-.612-.208-.76-.54a1.148 1.148 0 0 1 .058-1.038l.1-.129a.783.783 0 0 1 .602-.293h1.285c.236.003.461.12.622.323.151.18.236.422.236.674z"/>
        <path fill="#000" d="M102.975 114c.017.126.026.256.025.387-.003.889-.385 1.608-.857 1.613h-1.283c-.473 0-.857-.722-.857-1.613a1.47 1.47 0 0 1 0-.189l2.972-.198zM106.93 114c.045.178.069.37.07.563-.003.792-.385 1.432-.858 1.437h-1.284c-.474 0-.858-.643-.858-1.437 0-.134.012-.267.035-.395l2.895-.168z" opacity=".1"/>
        <path fill="#000" d="M108.87 114c.084.207.13.446.13.69-.003.722-.385 1.306-.858 1.31h-1.284c-.474 0-.858-.587-.858-1.31a1.814 1.814 0 0 1 .075-.544l2.795-.146zM113 112.808c-.003.657-.385 1.188-.858 1.192h-1.285c-.32 0-.612-.248-.76-.642a1.592 1.592 0 0 1 .058-1.233l2.61-.125c.151.216.236.506.235.808z" opacity=".1"/>
        <path fill="#D6D6E3" d="M119.995 117H97v-.903c0-.834.765-1.518 1.73-1.546l18.443-.55c.74-.021 1.459.217 1.992.661.533.444.834 1.056.835 1.696l-.005.642z"/>
        <path fill="#1D3E7E" d="M234 112.98c-.027 1.66 1.157 3.02 2.624 3.02h27.705v-2.917H241.26c-.995 0-1.615-1.215-1.115-2.187l20.895-42.932a1.85 1.85 0 0 1 1.619-1.056H273V62h-13.043c-.477.018-.906.3-1.115.734l-23.953 46.74a8.01 8.01 0 0 0-.889 3.507z"/>
        <path fill="#1D3E7E" d="M284.018 105.353l.385.647 3.597-2.402L276.87 18h-2.865s-.117.394-.31 1.145c-1.923 7.397-11.364 49.294 10.323 86.208z"/>
        <path fill="#000" d="M276 19.145l10.823 86.208.404.647 3.773-2.402L279.33 18h-3.005s-.123.408-.325 1.145z" opacity=".1"/>
        <path fill="#D6D6E3" d="M275.459 18.45l6.72-.804 10.507 87.525-6.72.804z"/>
        <path fill="#E3EDF9" d="M316 112.997c.003.553.385 1 .857 1.003h1.283c.473 0 .857-.449.857-1.003a.57.57 0 0 0 0-.117c-.053-.501-.416-.878-.847-.88h-1.283c-.392.005-.731.318-.827.762a1.067 1.067 0 0 0-.04.235zM312.002 112.997c.002.553.385 1 .857 1.003h1.284a.8.8 0 0 0 .606-.294c.16-.188.251-.443.251-.709 0-.093-.012-.186-.035-.276a.989.989 0 0 0-.216-.428.782.782 0 0 0-.601-.293h-1.309c-.338-.002-.646.227-.787.587-.04.131-.058.27-.05.41z"/>
        <path fill="#E3EDF9" d="M309 113c.003.551.385.997.858 1h1.284c.474 0 .858-.448.858-1a1.082 1.082 0 0 0-.075-.415c-.142-.352-.444-.58-.778-.585h-1.284a.796.796 0 0 0-.608.291 1.084 1.084 0 0 0-.25.709H309zM305 112.997c.003.553.385 1 .858 1.003h1.285c.32 0 .612-.208.76-.54a1.148 1.148 0 0 0-.058-1.038l-.1-.129a.783.783 0 0 0-.602-.293h-1.285a.813.813 0 0 0-.622.323c-.151.18-.236.422-.236.674z"/>
        <path fill="#000" d="M316.025 114a2.753 2.753 0 0 0-.025.387c.003.889.385 1.608.857 1.613h1.283c.473 0 .857-.722.857-1.613a1.47 1.47 0 0 0 0-.189l-2.972-.198zM312.07 114c-.045.178-.069.37-.07.563.003.792.385 1.432.858 1.437h1.284c.474 0 .858-.643.858-1.437 0-.134-.012-.267-.035-.395L312.07 114z" opacity=".1"/>
        <path fill="#000" d="M309.13 114c-.084.207-.13.446-.13.69.003.722.385 1.306.858 1.31h1.284c.474 0 .858-.587.858-1.31a1.814 1.814 0 0 0-.075-.544L309.13 114zM305 112.808c.003.657.385 1.188.858 1.192h1.285c.32 0 .612-.248.76-.642.148-.393.125-.869-.058-1.233l-2.61-.125a1.414 1.414 0 0 0-.235.808z" opacity=".1"/>
        <path fill="#D6D6E3" d="M298.005 117H321v-.903c0-.834-.765-1.518-1.73-1.546l-18.443-.55c-.74-.021-1.459.217-1.992.661-.533.444-.834 1.056-.835 1.696l.005.642z"/>
        <path fill="#F8B9BF" d="M323 100.821L320.928 109s-1.863-.409-4.657-1.109c-9.462-2.39-29.42-8.128-21.42-12.34 6.896-3.635 17.052-.1 23.083 2.658A58.532 58.532 0 0 1 323 100.82z"/>
        <path fill="#000" d="M321.822 102.979L319.926 109s-2.37-.417-5.926-1.13l2.14-9.87a82.72 82.72 0 0 1 5.86 2.395l-.178 2.584z" opacity=".1"/>
        <path fill="#D9DFE8" d="M322.205 109L315 107.574 317.24 97l5.76 1.138z"/>
        <path fill="#000" d="M321.39 110l-2.39-.645.9-11.355 2.1.567z" opacity=".1"/>
        <path fill="#1D3E7E" d="M378.268 66.063s-11.229-6.3-16.22 11.774c-4.99 18.075-5.46 26.401-5.46 26.401l-35.463-6.886L320 109.931s37.915 11.888 42.684 11.024c4.77-.864 20.245-26.063 20.245-26.063s14.068-19.528-4.66-28.829z"/>
        <path fill="#68739D" d="M307.575 208.812l-14.213 7.981s-18.414 2.2-6.147 6.391c12.267 4.191 40.785-.185 40.785-.185s-1.585-12.492-3.795-14.236c-2.21-1.745-16.63.05-16.63.05z"/>
        <path fill="#2E75BF" d="M363.265 116.213s-7.119 3.721-19.765 6.935c-7.411 1.86-16.689 3.182-23.1 3.935a16.66 16.66 0 0 0-14.2 11.922 10.621 10.621 0 0 0-.162 5.768c2.107 7.363-1.038 67.218-1.038 67.218L326.728 214s-2.964-11.029 1.535-16.587c4.5-5.559-.754-47.868-.754-47.868s7.873-3.256 31.396-3.47c21.793 5.582 30.772-18.266 27.409-24.95-3.364-6.684-23.05-4.912-23.05-4.912z"/>
        <path fill="#000" d="M306.65 208.507l-14.181 8.105s-18.374 2.233-6.134 6.489c12.24 4.256 40.695-.188 40.695-.188s-1.581-12.685-3.786-14.456c-2.204-1.771-16.593.05-16.593.05z" opacity=".1"/>
        <path fill="#68739D" d="M313.573 213.812l-14.214 7.977s-18.407 2.18-6.148 6.388c12.259 4.207 40.789-.185 40.789-.185s-1.586-12.487-3.795-14.23c-2.21-1.743-16.632.05-16.632.05z"/>
        <path fill="#2E75BF" d="M364.914 151.08c-23.527.215-31.4 3.47-31.4 3.47s5.253 42.325.753 47.864c-4.5 5.54-1.536 16.586-1.536 16.586L311 216.99s.037-.706.098-1.971c.52-10.4 2.815-58.678.93-65.24a10.618 10.618 0 0 1 .163-5.75 16.666 16.666 0 0 1 14.198-11.948c6.408-.749 15.686-2.051 23.1-3.935l.362-.093c12.425-3.19 19.405-6.842 19.405-6.842s19.689-1.767 23.053 4.917c.475 1.06.71 2.21.689 3.372.167 9.018-9.093 26.45-28.084 21.58z"/>
        <path fill="#F8B9BF" d="M332 110.805l-.793 8.195s-1.906-.128-4.738-.412c-9.677-.961-30.203-3.663-22.947-8.86 6.24-4.464 16.775-2.515 23.132-.708a61.336 61.336 0 0 1 5.346 1.785zM389 55.24s-2.929 2.243-6.507 4.705c-3.925.87-8.482 1.588-11.766 2.055 1.174-3.661.468-7.78-.856-11.391A42.599 42.599 0 0 0 364 40.046L383.798 34c-1.553 3.849-.852 8.238.468 12.055A39.422 39.422 0 0 0 389 55.24z"/>
        <path fill="#000" d="M332 114.104l-.537 5.896s-1.795-.129-4.463-.413l.175-9.587a55.392 55.392 0 0 1 4.607 1.615l.218 2.489z" opacity=".1"/>
        <path fill="#D9DFE8" d="M333 120l-6-.535.198-10.465 4.799.426z"/>
        <path fill="#000" d="M390 54.227s-2.909 2.247-6.463 4.714c-3.899.871-8.425 1.591-11.687 2.059 1.167-3.669.465-7.796-.85-11.414 4.805-1.376 11.677-3.155 14.302-4.586A39.627 39.627 0 0 0 390 54.227z" opacity=".1"/>
        <path fill="#D9DFE8" d="M385.513 46s3.295 7.318 5.37 10.624C392.958 59.931 366.77 63 366.77 63s-2.718-9.213-1.42-10.27c1.299-1.056 17.97-4.59 20.162-6.73z"/>
        <path fill="#000" d="M393 128.34a23.145 23.145 0 0 1-4.061 5.173c-11.524 10.774-30.414-.456-38.939-6.596 12.377-3.129 19.33-6.71 19.33-6.71s19.613-1.733 22.965 4.822c.48 1.04.72 2.17.704 3.311z" opacity=".1"/>
        <path fill="#1D3E7E" d="M389.594 132.488c-13.182 12.327-35.916-3.995-42.045-8.804-.994-.78-1.549-1.263-1.549-1.263 2.42-2.232 4.548-6.962 6.232-12.75a110.362 110.362 0 0 0 3.39-16.891 62.09 62.09 0 0 1 10.039-27.02c.713-1.056 1.4-2.043 2.113-2.906 4.977-6.233 13.34-10.192 13.34-10.192 17.65-5.08 20.025 20.7 19.554 21.444-.471.744 4.249 44.049-11.074 58.382z"/>
        <path fill="#000" d="M392.007 97.686s-11.525 27.497-16.134 29.067c-2.639.893-16.732-.801-28.3-2.417-1.01-.787-1.573-1.273-1.573-1.273 2.459-2.25 4.619-7.018 6.329-12.85l14.898.694s-.829-8.398 1.36-27.23c2.188-18.83 14.32-14.165 14.32-14.165 20.072 6.57 9.1 28.174 9.1 28.174zM333 120l-2.37-.236L330 109l2.082.204z" opacity=".1"/>
        <path fill="#1D3E7E" d="M382.126 68.511s-11.921-4.662-14.072 14.167c-2.15 18.829-1.336 27.231-1.336 27.231L331 108.21l.805 12.76s38.875 6.347 43.404 4.782c4.53-1.565 15.855-29.07 15.855-29.07s10.767-21.606-8.938-28.17z"/>
        <path fill="#000" d="M383.273 41.2c-.555-2.697 2.596-2.662 3.727-5.2l-21 5.861a41.079 41.079 0 0 1 3.89 5.533c1.09.29 2.208.483 3.34.577 5.007.426 6.57-3.98 10.043-6.77z" opacity=".1"/>
        <ellipse cx="373.634" cy="29.454" fill="#F8B9BF" rx="16.281" ry="16.318" transform="rotate(-84.72 373.634 29.454)"/>
        <path fill="#000" d="M359.021 14.491c.196 1.678 1.943 2.701 3.568 3.08 1.624.377 3.385.396 4.809 1.276 2.275 1.42 2.89 4.573 2.602 7.283-.159 1.53-.386 3.407.851 4.296.389.241.823.398 1.274.461 1.291.265 2.616.312 3.922.138.765-.101 1.552-.276 2.275-.06 1.192.35 1.898 1.623 2.13 2.854.232 1.23.104 2.512.29 3.752.533 3.178 2.942 5.696 6.061 6.333a3.295 3.295 0 0 0 2.139-.193c.864-.461 1.306-1.443 1.679-2.36l2.73-6.62c1.228-2.982 2.466-5.992 3.121-9.154a26.095 26.095 0 0 0-1.087-14.262c-.646-1.733-1.538-3.47-3.053-4.512-3.035-2.089-7.28-.646-10.73-1.844-1.141-.401-2.17-1.084-3.307-1.494-2.462-.89-5.242-.42-7.612.7-2.37 1.121-4.286 2.886-6.37 4.495-1.806 1.424-5.633 2.932-5.292 5.831z" opacity=".1"/>
        <path fill="#1D3E7E" d="M359.02 14.491c.197 1.678 1.944 2.701 3.568 3.08 1.624.377 3.385.396 4.81 1.276 2.274 1.42 2.889 4.573 2.602 7.283-.16 1.53-.387 3.407.85 4.296.39.241.823.398 1.275.461 1.29.265 2.616.312 3.922.138.764-.101 1.552-.276 2.275-.06 1.192.35 1.897 1.623 2.13 2.854.231 1.23.104 2.512.29 3.752.533 3.178 2.942 5.696 6.061 6.333a3.295 3.295 0 0 0 2.139-.193c.864-.461 1.306-1.443 1.679-2.36l2.73-6.62c1.228-2.982 2.466-5.992 3.121-9.154a26.094 26.094 0 0 0-1.087-14.262c-.647-1.733-1.538-3.47-3.053-4.512-3.035-2.089-7.28-.646-10.73-1.844-1.141-.401-2.17-1.084-3.307-1.494-2.462-.89-5.242-.42-7.612.7-2.371 1.121-4.287 2.886-6.37 4.495-1.802 1.424-5.629 2.932-5.292 5.831z"/>
        <path fill="#000" d="M371 79s-6.042 23.94-12.057 26.156c-6.015 2.216-3.359 2.844-3.359 2.844" opacity=".1"/>
        <path fill="#D6D6E3" d="M364 168h8v44h-8z"/>
        <path fill="#000" d="M364 168h8v3h-8z" opacity=".1"/>
        <path fill="#D6D6E3" d="M352 166.06v.88c0 .546.232 1.07.644 1.456.412.387.97.604 1.554.604h29.604c.583 0 1.142-.217 1.554-.604.412-.386.644-.91.644-1.457v-.878c0-1.138-.984-2.061-2.198-2.061h-29.604c-.583 0-1.142.217-1.554.604-.412.386-.644.91-.644 1.457z"/>
        <path fill="#000" d="M353 165h32c-.404-.634-1.008-1.001-1.645-1H354.64c-.636 0-1.238.367-1.641 1z" opacity=".1"/>
        <rect width="56" height="5" x="341" y="209" fill="#D6D6E3" rx="2.5"/>
        <circle cx="393" cy="218" r="4" fill="#1D3E7E"/>
        <circle cx="344" cy="218" r="4" fill="#1D3E7E"/>
        <circle cx="368" cy="218" r="4" fill="#1D3E7E"/>
        <rect width="53" height="9" x="362" y="112" fill="#D6D6E3" rx="4.5"/>
        <path fill="#000" d="M372 209s-3.143 4.5-8 0M415 116v.644a3.363 3.363 0 0 1-3.37 3.356h-46.26a3.363 3.363 0 0 1-3.37-3.356V116h53z" opacity=".1"/>
        <path fill="#D6D6E3" d="M318 125h9v117h-9z"/>
        <path fill="#000" d="M318 125h9v8h-9z" opacity=".1"/>
        <path fill="#D6D6E3" d="M41 171h8v44h-8z"/>
        <path fill="#000" d="M41 171h8v3h-8z" opacity=".1"/>
        <path fill="#D6D6E3" d="M62 170.05v.882c0 1.142-.984 2.068-2.198 2.068H30.198a2.27 2.27 0 0 1-1.554-.606 2.008 2.008 0 0 1-.644-1.462v-.882c.01-1.135.991-2.05 2.198-2.05h29.604a2.27 2.27 0 0 1 1.554.606c.412.387.644.913.644 1.462v-.018z"/>
        <path fill="#000" d="M61 168H29c.408-.642 1.012-1.009 1.645-1h28.71c.633-.009 1.237.358 1.645 1z" opacity=".1"/>
        <rect width="56" height="5" x="16" y="213" fill="#D6D6E3" rx="2.5"/>
        <circle cx="21" cy="221" r="4" fill="#1D3E7E"/>
        <circle cx="70" cy="221" r="4" fill="#1D3E7E"/>
        <circle cx="45" cy="221" r="4" fill="#1D3E7E"/>
        <path fill="#000" d="M41 213s3.143 4.5 8 0" opacity=".1"/>
        <path stroke="#535461" stroke-width="2" d="M214 79s-7.04-14.022-4.468-26.21c1.109-5.105.676-10.466-1.232-15.279A42.064 42.064 0 0 0 205 31"/>
        <path fill="#6C63FF" d="M207.941 23.707c.47 1.698-2.046 7.293-2.046 7.293s-5.248-4.244-5.724-5.941c-.433-1.131-.03-2.359 1.047-3.179 1.076-.82 2.643-1.093 4.055-.708s2.433 1.365 2.64 2.535h.028z"/>
        <path fill="#6C63FF" d="M213.686 32.537c-.771 1.693-6.742 5.463-6.742 5.463s-1.497-6.055-.72-7.74c.452-1.142 1.63-1.989 3.07-2.206 1.438-.217 2.906.23 3.824 1.166.918.935 1.138 2.208.573 3.317h-.005zM216.738 50.024C215.298 51.204 209 52 209 52s2.053-6.04 3.493-7.222a3.345 3.345 0 0 1 3.332-.56 3.393 3.393 0 0 1 .913 5.806zM219.018 62.716C217.677 64.136 211 66 211 66s1.105-6.34 2.447-7.755c.854-.96 2.208-1.414 3.532-1.188 1.325.227 2.41 1.099 2.834 2.276.423 1.178.117 2.474-.8 3.383h.005z"/>
        <path fill="#6C63FF" d="M201.566 39.964C203.048 41.046 209 41 209 41s-2.632-6.305-4.114-7.387c-.958-.745-2.183-.816-3.199-.186-1.015.63-1.661 1.861-1.686 3.216-.025 1.354.574 2.618 1.565 3.3v.02zM201.34 56.912c1.758.562 7.66-1.753 7.66-1.753s-4.277-5.52-6.035-6.07c-1.722-.45-3.426.851-3.862 2.951-.436 2.1.551 4.25 2.237 4.872zM203.797 72.632c1.527.9 7.203-.133 7.203-.133s-3.199-6.251-4.726-7.15c-1.53-.9-3.325.002-4.009 2.015-.684 2.013.002 4.374 1.532 5.274v-.006z"/>
        <path fill="#2E75BF" d="M207.941 23.707c.47 1.698-2.046 7.293-2.046 7.293s-5.248-4.244-5.724-5.941c-.433-1.131-.03-2.359 1.047-3.179 1.076-.82 2.643-1.093 4.055-.708s2.433 1.365 2.64 2.535h.028z"/>
        <path fill="#2E75BF" d="M213.686 32.537c-.771 1.693-6.742 5.463-6.742 5.463s-1.497-6.055-.72-7.74c.452-1.142 1.63-1.989 3.07-2.206 1.438-.217 2.906.23 3.824 1.166.918.935 1.138 2.208.573 3.317h-.005zM216.738 50.024C215.298 51.204 209 52 209 52s2.053-6.04 3.493-7.222a3.345 3.345 0 0 1 3.332-.56 3.393 3.393 0 0 1 .913 5.806zM219.018 62.716C217.677 64.136 211 66 211 66s1.105-6.34 2.447-7.755c.854-.96 2.208-1.414 3.532-1.188 1.325.227 2.41 1.099 2.834 2.276.423 1.178.117 2.474-.8 3.383h.005z"/>
        <path fill="#2E75BF" d="M201.566 39.964C203.048 41.046 209 41 209 41s-2.632-6.305-4.114-7.387c-.958-.745-2.183-.816-3.199-.186-1.015.63-1.661 1.861-1.686 3.216-.025 1.354.574 2.618 1.565 3.3v.02zM201.34 56.912c1.758.562 7.66-1.753 7.66-1.753s-4.277-5.52-6.035-6.07c-1.722-.45-3.426.851-3.862 2.951-.436 2.1.551 4.25 2.237 4.872zM203.797 72.632c1.527.9 7.203-.133 7.203-.133s-3.199-6.251-4.726-7.15c-1.53-.9-3.325.002-4.009 2.015-.684 2.013.002 4.374 1.532 5.274v-.006zM211 117a8.08 8.08 0 0 1-5.832-2.47 7.734 7.734 0 0 1-2.152-5.854L205.25 74h11.498l2.235 34.676a7.734 7.734 0 0 1-2.152 5.854A8.08 8.08 0 0 1 211 117z"/>
        <path fill="#1D3E7E" d="M51 24.5C51 33.613 43.389 41 34 41s-17-7.387-17-16.5S24.611 8 34 8c4.509 0 8.833 1.738 12.02 4.833C49.21 15.927 51 20.123 51 24.5z"/>
        <path fill="#F8B9BF" d="M89 102.828L90.695 111s1.885-.327 4.675-.897c9.532-1.951 29.673-6.768 21.873-11.263-6.709-3.861-16.984-.825-23.113 1.642a55.206 55.206 0 0 0-4.694 2.122c-.283.139-.436.224-.436.224z"/>
        <path fill="#000" d="M89.042 104.864l1.23 6.136s1.906-.342 4.728-.938L93.746 100A54.95 54.95 0 0 0 89 102.219l.042 2.645z" opacity=".1"/>
        <path fill="#D9DFE8" d="M89.158 111L95 109.815 93.677 99 89 99.949z"/>
        <path fill="#000" d="M89.177 112l2.823-.537L91.483 100l-2.483.468z" opacity=".1"/>
        <path fill="#1D3E7E" d="M35.455 65.888s11.562-5.871 15.763 12.579c4.201 18.45 4.263 26.86 4.263 26.86l35.96-5.415.559 12.736S53.35 123 48.599 121.92c-4.751-1.08-19.174-27.165-19.174-27.165S16.21 74.47 35.455 65.888z"/>
        <g fill="#000" opacity=".1">
            <path d="M89.59 104.316l1.22 6.013s1.893-.336 4.695-.92l-1.245-9.86a54.886 54.886 0 0 0-4.712 2.175l.042 2.592z"/>
            <path d="M89.296 110.848l5.845-1.154-1.324-10.53-4.68.923z"/>
            <path d="M89.296 110.848l2.522-.5-.462-10.698-2.219.437z"/>
            <path d="M36.353 66.039s11.378-5.847 15.513 12.526C56 96.938 56.06 105.314 56.06 105.314l35.388-5.392.55 12.682s-38.036 10.31-42.711 9.235c-4.675-1.076-18.87-27.052-18.87-27.052S17.415 74.584 36.354 66.04z"/>
        </g>
        <path fill="#1D3E7E" d="M99.01 210.366l13.817 8.655s18.27 3.02 5.842 6.723C106.242 229.447 78 223.785 78 223.785s2.146-12.544 4.43-14.207c2.284-1.662 16.58.788 16.58.788z"/>
        <path fill="#96A2D0" d="M49.27 116.52s6.993 4 19.57 7.736c7.373 2.19 16.648 3.883 23.056 4.912 6.723 1.022 12.154 5.942 13.748 12.454a10.38 10.38 0 0 1-.089 5.701c-2.445 7.205-1.949 66.64-1.949 66.64L81.666 215s3.47-10.798-.806-16.5c-4.277-5.7 2.885-47.385 2.885-47.385s-7.77-3.57-31.426-4.811c-22.17 4.613-30.138-19.442-26.456-25.918 3.682-6.477 23.407-3.866 23.407-3.866z"/>
        <path fill="#000" d="M47.557 116.536s7.01 4.006 19.618 7.75c7.39 2.194 16.687 3.89 23.11 4.92 6.74 1.025 12.184 5.953 13.781 12.477a10.393 10.393 0 0 1-.089 5.712c-2.45 7.218-1.953 66.76-1.953 66.76l-21.993 1.04s3.479-10.819-.808-16.53c-4.287-5.712 2.892-47.472 2.892-47.472s-7.79-3.576-31.501-4.82c-22.224 4.622-30.21-19.477-26.52-25.965 3.69-6.487 23.463-3.872 23.463-3.872z" opacity=".1"/>
        <path fill="#1D3E7E" d="M94.01 215.366l13.817 8.655s18.27 3.02 5.842 6.723C101.242 234.447 73 228.785 73 228.785s2.146-12.544 4.43-14.207c2.284-1.662 16.58.788 16.58.788z"/>
        <path fill="#2E75BF" d="M43.06 149.977c23.775 1.246 31.586 4.833 31.586 4.833s-2.255 40.702.942 46.625C79 207.719 72.537 219 72.537 219l22.053-1.043v-1.965c-.066-10.372-.226-58.535 1.963-64.991.564-1.865.595-3.847.09-5.729-1.604-6.543-7.062-11.485-13.819-12.513-6.445-1.029-15.763-2.73-23.173-4.931l-.363-.112c-12.415-3.707-19.303-7.66-19.303-7.66s-14.684-1.002-18.361 5.505c-.471.844-2.5 2.503-2.585 3.842-.551 8.964 4.633 24.592 24.02 20.574z"/>
        <path fill="#F8B9BF" d="M78 112.26l.414 8.74s1.914-.052 4.768-.226c9.736-.589 30.417-2.538 23.39-8.382-6.042-5.024-16.684-3.423-23.13-1.79-2.365.603-4.183 1.206-4.973 1.493-.306.104-.469.165-.469.165zM23 53.333s2.844 2.404 6.37 5.063c3.933 1.051 8.53 1.986 11.815 2.604-1.02-3.79-.114-7.904 1.388-11.527A43.409 43.409 0 0 1 49 39.007L29.237 32c1.398 3.975.474 8.416-1.028 12.215A40.176 40.176 0 0 1 23 53.333z"/>
        <path fill="#000" d="M79 114.966l.28 6.034s1.797-.05 4.476-.217L84 111c-2.22.58-3.927 1.159-4.668 1.435l-.332 2.53z" opacity=".1"/>
        <path fill="#D9DFE8" d="M77 121l7.641-.283L85 110l-6.115.228z"/>
        <path fill="#1D3E7E" d="M19.454 131.91c12.752 12.993 36.531-2.449 42.926-7.022a49.083 49.083 0 0 0 1.62-1.203c-2.361-2.356-6.14-4.537-7.59-10.438a125.84 125.84 0 0 1-2.805-18.293c-.392-4.884 4.756-14.183 3.268-18.821-1.488-4.638-7.613-6.16-10.187-10.36a45.641 45.641 0 0 0-2.007-3.017c-4.752-6.48-13.03-10.845-13.03-10.845-17.64-5.902-19.024 18.788-18.585 19.556.439.769-1.578 27.986 6.39 60.443z"/>
        <path fill="#000" d="M21.384 96.491s10 28.318 14.412 30.104c2.527 1.022 16.308-.08 27.623-1.21 1.014-.754 1.581-1.218 1.581-1.218-2.305-2.385-4.182-7.302-5.593-13.273l-14.518.052s1.175-8.437-.125-27.602c-1.3-19.164-13.301-14.951-13.301-14.951-19.794 5.77-10.08 28.098-10.08 28.098zM78 121l2.755-.122L82 110l-2.425.108z" opacity=".1"/>
        <path fill="#1D3E7E" d="M30.6 67.388s12.12-4.186 13.449 14.953c1.329 19.14.14 27.605.14 27.605L80 109.815l-1.375 12.872s-39.158 4.688-43.634 2.911c-4.475-1.777-14.577-30.104-14.577-30.104S10.583 73.158 30.6 67.388z"/>
        <path fill="#000" d="M31.523 38.546c.7-2.773-2.516-2.86-3.523-5.546l21 6.933a43.276 43.276 0 0 0-4.218 5.597c-1.119.255-2.262.41-3.413.462-5.104.23-6.468-4.405-9.846-7.446z" opacity=".1"/>
        <ellipse cx="40.807" cy="29.039" fill="#F8B9BF" rx="16.318" ry="16.281" transform="rotate(-2.75 40.807 29.039)"/>
        <path fill="#000" d="M32 80s5.09 24.47 11.099 26.969c6.01 2.499 3.285 3.031 3.285 3.031M53 92.887S48.842 94.181 44 88" opacity=".1"/>
        <ellipse cx="21.5" cy="7" fill="#1D3E7E" rx="7.5" ry="7"/>
        <path fill="#1D3E7E" d="M15.728 10.051a7.222 7.222 0 0 1 0-10.051 5.528 5.528 0 0 0-.357.298 7.228 7.228 0 0 0-.33 10.387c2.846 2.957 7.607 3.1 10.635.321.117-.105.22-.22.324-.33-3.057 2.47-7.553 2.197-10.272-.625z"/>
        <path fill="#1D3E7E" d="M19.9 13c-3.953.253-7.412-2.81-7.9-7v.5c.168 2.852 1.75 5.393 4.153 6.665 2.402 1.271 5.258 1.08 7.492-.5 2.235-1.581 3.508-4.312 3.34-7.165 0-.17-.033-.33-.051-.5.008 4.228-3.073 7.733-7.033 8z"/>
        <path fill="#000" d="M46.86 13.128c1.727.86 3.703 1.098 5.555 1.64 1.851.542 3.74 1.533 4.554 3.299.597 1.298.528 2.836 1.153 4.12.897 1.87 2.971 2.729 4.878 3.462-1.638 2.22-5.156 1.617-7.452.108-2.296-1.51-4.272-3.738-6.943-4.322a6.494 6.494 0 0 0-6.854 3.079c-.732 1.294-.99 2.803-1.352 4.242-.926 3.794-2.777 7.569-6.017 9.722-3.24 2.154-8.067 2.14-10.608-.808-1.482-1.72-1.977-4.06-2.417-6.293-.25-1.041-.37-2.11-.356-3.182.148-2.681 1.916-4.966 3.703-6.956 2.106-2.336 4.346-4.579 6.586-6.807 1.935-1.925 4.166-5.186 7.082-5.415 3.36-.27 5.734 2.752 8.488 4.111z" opacity=".1"/>
        <path fill="#1D3E7E" d="M46.86 13.128c1.727.86 3.703 1.098 5.555 1.64 1.851.542 3.74 1.533 4.554 3.299.597 1.298.528 2.836 1.153 4.12.897 1.87 2.971 2.729 4.878 3.462-1.638 2.22-5.156 1.617-7.452.108-2.296-1.51-4.272-3.738-6.943-4.322a6.494 6.494 0 0 0-6.854 3.079c-.732 1.294-.99 2.803-1.352 4.242-.926 3.794-2.777 7.569-6.017 9.722-3.24 2.154-8.067 2.14-10.608-.808-1.482-1.72-1.977-4.06-2.417-6.293-.25-1.041-.37-2.11-.356-3.182.148-2.681 1.916-4.966 3.703-6.956 2.106-2.336 4.346-4.579 6.586-6.807 1.935-1.925 4.166-5.186 7.082-5.415 3.36-.27 5.734 2.752 8.488 4.111z"/>
        <rect width="53" height="9" y="115" fill="#D6D6E3" rx="4.5"/>
        <path fill="#000" d="M0 120v.644A3.363 3.363 0 0 0 3.37 124h46.26a3.363 3.363 0 0 0 3.37-3.356V120H0z" opacity=".1"/>
        <path fill="#D6D6E3" d="M93 125h9v117h-9z"/>
        <path fill="#000" d="M93 125h9v8h-9z" opacity=".1"/>
        <path fill="#D6D6E3" d="M89 117h242v14H89z"/>
    </g>
</svg>
